<?xml version="1.0" encoding="UTF-8" standalone="no"?>
<!-- Created with Inkscape (http://www.inkscape.org/) -->

<svg
   xmlns:dc="http://purl.org/dc/elements/1.1/"
   xmlns:cc="http://creativecommons.org/ns#"
   xmlns:rdf="http://www.w3.org/1999/02/22-rdf-syntax-ns#"
   xmlns:svg="http://www.w3.org/2000/svg"
   xmlns="http://www.w3.org/2000/svg"
   xmlns:sodipodi="http://sodipodi.sourceforge.net/DTD/sodipodi-0.dtd"
   xmlns:inkscape="http://www.inkscape.org/namespaces/inkscape"
   width="1000"
   height="1000"
   viewBox="0 0 264.58333 264.58333"
   version="1.1"
   id="svg8"
   inkscape:version="0.92.3 (2405546, 2018-03-11)"
   sodipodi:docname="favicon.svg"
   inkscape:export-filename="D:\OneDrive\Logos\Digitalt välmående.png"
   inkscape:export-xdpi="96"
   inkscape:export-ydpi="96">
  <defs
     id="defs2">
    <clipPath
       clipPathUnits="userSpaceOnUse"
       id="clipPath4554">
      <path
         style="fill:#000000;stroke-width:0.19636953"
         d="m 124.6166,295.63419 c -0.054,-0.0548 -1.15859,-0.15724 -2.45463,-0.22766 -1.29604,-0.0704 -2.7099,-0.1715 -3.14192,-0.22463 -8.11427,-0.99792 -12.69486,-1.81284 -18.79595,-3.34402 -1.974601,-0.49553 -3.722721,-0.92213 -3.884731,-0.94796 -0.161991,-0.0259 -0.543311,-0.14782 -0.847341,-0.27108 -0.304049,-0.12328 -0.636159,-0.22415 -0.738029,-0.22415 -0.101881,0 -1.88554,-0.57949 -3.963702,-1.28774 -2.07817,-0.70827 -3.911028,-1.32007 -4.07303,-1.35957 -0.16201,-0.0394 -0.316648,-0.0897 -0.343649,-0.11144 -0.027,-0.0218 -0.115369,-0.0585 -0.196371,-0.0815 -0.081,-0.023 -0.455681,-0.18089 -0.832623,-0.35066 -0.376944,-0.16977 -0.752498,-0.26717 -0.83457,-0.21645 -0.08208,0.0507 -0.149222,-0.0116 -0.149222,-0.13863 0,-0.13424 -0.164491,-0.18785 -0.393012,-0.1281 -0.216154,0.0565 -0.349213,0.0319 -0.29568,-0.0548 0.05353,-0.0866 -0.0393,-0.20989 -0.206298,-0.27399 -0.205264,-0.0788 -0.255656,-0.0389 -0.155546,0.12307 0.08144,0.13179 -0.102613,0.0424 -0.409022,-0.19861 -0.306406,-0.24101 -0.649838,-0.43821 -0.763175,-0.43821 -0.113342,0 -0.565348,-0.16799 -1.004461,-0.37332 -1.980195,-0.92589 -2.265429,-1.02799 -2.487994,-0.89043 -0.140663,0.0869 -0.185486,0.0636 -0.110553,-0.0577 0.06942,-0.11234 -0.159523,-0.31552 -0.509672,-0.45237 -0.682832,-0.26685 -6.611266,-3.21111 -8.392303,-4.16789 -1.639242,-0.88064 -4.605708,-2.61902 -6.573647,-3.85224 -0.969426,-0.60751 -1.903982,-1.19292 -2.076792,-1.30093 -0.172807,-0.10806 -0.870907,-0.57024 -1.551326,-1.02724 -0.680418,-0.45697 -1.328015,-0.7747 -1.439106,-0.70604 -0.116755,0.0722 -0.142499,0.0285 -0.061,-0.10324 0.08164,-0.1321 -0.0089,-0.28346 -0.215122,-0.35964 -0.19585,-0.0723 -0.400275,-0.18271 -0.454277,-0.24519 -0.397576,-0.46013 -1.615464,-1.18711 -1.798822,-1.07379 -0.130662,0.0808 -0.172342,0.0533 -0.09907,-0.0652 0.136829,-0.22139 -1.937491,-1.88518 -2.350336,-1.88518 -0.138049,0 -0.21258,-0.0621 -0.165629,-0.13811 0.04695,-0.076 -0.465042,-0.5215 -1.137764,-0.99001 -0.672719,-0.46854 -1.25031,-0.91502 -1.283531,-0.99221 -0.03322,-0.0771 -0.560266,-0.52272 -1.171205,-0.99006 -0.610938,-0.46737 -1.258956,-0.98227 -1.440037,-1.14429 -0.181083,-0.162 -0.728628,-0.64802 -1.216768,-1.08004 -0.488146,-0.43201 -1.572178,-1.40404 -2.408963,-2.16006 -0.836789,-0.75603 -1.6282,-1.36427 -1.758698,-1.35167 -0.130495,0.0126 -0.226955,-0.11996 -0.214355,-0.29455 0.01259,-0.17461 -0.09412,-0.29321 -0.237149,-0.2635 -0.143031,0.0296 -0.212391,-0.0231 -0.154133,-0.11744 0.05826,-0.0942 -0.188539,-0.40616 -0.548439,-0.69311 -0.620815,-0.49498 -1.940975,-1.81775 -3.213542,-3.21991 -0.318566,-0.35101 -0.680106,-0.6382 -0.803417,-0.6382 -0.123315,0 -0.224203,-0.0821 -0.224203,-0.18235 0,-0.10035 -0.115083,-0.29909 -0.255741,-0.44182 -0.639776,-0.64916 -4.994828,-5.65855 -5.883209,-6.76715 -0.544449,-0.67942 -1.064876,-1.18899 -1.156502,-1.13235 -0.09163,0.0566 -0.166592,-0.05 -0.166592,-0.23703 0,-0.18701 -0.421709,-0.83289 -0.937133,-1.43527 -0.515424,-0.60242 -1.271108,-1.5887 -1.679302,-2.19176 -0.408194,-0.60308 -0.997715,-1.37628 -1.310047,-1.71825 -0.312333,-0.34195 -0.526101,-0.62173 -0.475036,-0.62173 0.05106,0 -0.447615,-0.79576 -1.10817,-1.76836 -0.690408,-1.01655 -1.290141,-1.71329 -1.410654,-1.63881 -0.12733,0.0787 -0.151902,0.0362 -0.06258,-0.10841 0.08755,-0.14167 -0.32658,-0.96841 -1.023454,-2.04312 -0.643783,-0.99287 -1.460458,-2.26626 -1.814837,-2.82982 -0.354379,-0.56353 -0.718641,-0.97867 -0.809469,-0.92256 -0.09083,0.0561 -0.116678,-0.0241 -0.05744,-0.1786 0.134011,-0.34922 -0.577602,-1.55971 -0.79895,-1.35907 -0.08893,0.0806 -0.09203,0.0262 -0.0068,-0.12083 0.08516,-0.14708 0.07723,-0.32383 -0.01761,-0.39275 -0.09485,-0.069 -0.657955,-1.06713 -1.251366,-2.21823 -0.593412,-1.1511 -1.15161,-2.04797 -1.240443,-1.99307 -0.08884,0.0549 -0.145136,-0.0195 -0.125115,-0.16535 0.07032,-0.51226 -0.01203,-0.77808 -0.204253,-0.6593 -0.115304,0.0713 -0.14162,-0.0168 -0.06482,-0.21699 0.09368,-0.24411 0.05897,-0.2935 -0.125908,-0.17922 -0.170083,0.10513 -0.22557,0.0688 -0.166338,-0.10897 0.04888,-0.14663 -0.504217,-1.50653 -1.229106,-3.02198 -0.724889,-1.51543 -1.691697,-3.65984 -2.148463,-4.76539 -0.456765,-1.10551 -0.907405,-1.96251 -1.001421,-1.9044 -0.09401,0.0582 -0.123779,-0.0172 -0.06614,-0.16745 0.05764,-0.1502 -0.283791,-1.28146 -0.7587314,-2.51392 -0.4749419,-1.23243 -0.9753791,-2.59426 -1.112084,-3.02628 -0.1367049,-0.43201 -0.3571179,-1.05058 -0.4898101,-1.37458 -0.3044468,-0.74342 -1.193337,-3.60169 -1.696782,-5.45607 -0.2115658,-0.77928 -0.439276,-1.54942 -0.506027,-1.71141 -0.06675,-0.16202 -0.152864,-0.45672 -0.1913638,-0.65492 -0.03851,-0.19818 -0.3294232,-1.39113 -0.6464911,-2.65098 -1.4056715,-5.5854 -2.5434765,-12.13369 -3.2641085,-18.78569 -0.500378,-4.61885 -0.611197,-17.72275 -0.194332,-22.97877 0.467046,-5.88872 1.2119131,-11.22315 2.3027741,-16.49151 0.2236308,-1.08004 0.4385198,-2.14042 0.4775329,-2.35642 0.1010589,-0.55956 0.9252601,-3.78929 1.5410691,-6.03887 0.288335,-1.0533 0.4613328,-2.0169 0.3844388,-2.14131 -0.08003,-0.12948 -0.05403,-0.1732 0.06083,-0.10222 0.210816,0.13031 0.9016211,-1.96788 0.7360909,-2.2357 -0.05115,-0.0827 -0.02027,-0.18013 0.06863,-0.21637 0.08891,-0.0362 0.4968931,-1.08207 0.9066501,-2.32411 1.5998439,-4.84938 4.213957,-11.11898 6.865074,-16.46497 0.821976,-1.65751 1.445171,-3.09346 1.384886,-3.19099 -0.06029,-0.0976 0.0222,-0.17737 0.1833,-0.17737 0.2389,0 0.557476,-0.51736 0.60458,-0.98184 0.0055,-0.054 0.194421,-0.36329 0.419869,-0.6873 0.225453,-0.32401 0.711333,-1.16348 1.07973,-1.8655 0.368398,-0.702027 0.714826,-1.320586 0.769839,-1.37459 0.37083,-0.364016 1.171101,-1.813364 1.081402,-1.958507 -0.06031,-0.09761 0.008,-0.249129 0.152147,-0.336772 0.143987,-0.0876 0.781238,-0.954641 1.41611,-1.926664 1.692088,-2.590697 4.684746,-6.814095 6.254488,-8.826672 0.753877,-0.966552 1.370687,-1.868421 1.370687,-2.004153 0,-0.135728 0.06096,-0.209108 0.135459,-0.16306 0.162329,0.100314 1.370041,-1.363379 1.370041,-1.660437 0,-0.114335 0.07161,-0.207886 0.159139,-0.207886 0.08752,0 0.664996,-0.596472 1.283272,-1.325494 0.618275,-0.729022 1.408234,-1.62551 1.755465,-1.992196 0.347231,-0.366686 0.532392,-0.6116 0.411472,-0.544251 -0.12092,0.06735 0.563772,-0.670941 1.521542,-1.640641 0.957768,-0.969698 1.677699,-1.763091 1.599843,-1.763091 -0.07785,0 0.05632,-0.138594 0.298162,-0.307988 0.241845,-0.169394 0.380402,-0.403963 0.307906,-0.521266 -0.0725,-0.117301 -0.04214,-0.157856 0.06746,-0.09012 0.109595,0.06773 0.601905,-0.294169 1.094025,-0.80423 0.49212,-0.510061 1.171533,-1.13959 1.509811,-1.398958 0.358058,-0.274529 0.570957,-0.586486 0.509521,-0.746583 -0.05804,-0.151254 -0.02566,-0.225647 0.07197,-0.165314 0.255934,0.158176 1.414762,-0.87054 1.260965,-1.119386 -0.07098,-0.114848 -0.04055,-0.154117 0.06761,-0.08728 0.254878,0.157525 1.291463,-0.919623 1.094078,-1.136901 -0.08252,-0.09083 -0.03111,-0.09636 0.114226,-0.01228 0.174951,0.101203 0.573125,-0.141203 1.178219,-0.717309 1.094089,-1.041675 3.529258,-3.064248 6.215941,-5.162762 1.080034,-0.843589 2.074153,-1.670124 2.209157,-1.83674 0.135003,-0.166616 0.245462,-0.226462 0.245462,-0.13299 0,0.09347 0.198823,-0.0067 0.441833,-0.222721 0.590925,-0.525174 2.639777,-1.953915 5.636363,-3.930454 1.355135,-0.893842 2.57061,-1.716066 2.701052,-1.827166 0.130447,-0.111102 0.287255,-0.201999 0.348459,-0.201999 0.06121,0 0.66141,-0.342614 1.333785,-0.761362 1.474941,-0.918582 6.033286,-3.456701 7.800875,-4.343581 0.702021,-0.352235 1.341324,-0.73949 1.420672,-0.860562 0.07935,-0.121075 0.145624,-0.160494 0.147278,-0.0876 0.0016,0.07289 0.687845,-0.198169 1.52487,-0.602363 0.837026,-0.404197 1.809054,-0.850114 2.160064,-0.99093 0.351012,-0.140817 0.638204,-0.333677 0.638204,-0.428577 0,-0.0949 0.06628,-0.151534 0.147275,-0.125854 0.159922,0.05069 0.938443,-0.241708 2.558624,-0.961 0.570217,-0.253154 1.12772,-0.460279 1.238898,-0.460279 0.111181,0 0.139089,-0.102016 0.06203,-0.226711 -0.07958,-0.128746 -0.05454,-0.173824 0.05792,-0.104321 0.108921,0.06731 0.895776,-0.148858 1.748576,-0.480381 7.372342,-2.865977 14.110883,-4.86435 21.678422,-6.428926 9.0296,-1.866856 16.33686,-2.578139 26.48608,-2.578139 7.10852,0 10.31009,0.174074 16.51884,0.898155 4.75378,0.554396 12.21166,2.001031 17.22332,3.340878 3.97458,1.062587 11.70532,3.604404 14.25354,4.686464 0.40977,0.173999 0.84317,0.255716 0.9631,0.181591 0.11994,-0.07414 0.16494,-0.04881 0.0999,0.05628 -0.0649,0.105075 0.20861,0.302786 0.60787,0.439363 0.39928,0.136577 0.99103,0.364753 1.31504,0.507057 2.02363,0.888794 5.32412,2.418633 6.60424,3.061209 0.82423,0.413745 1.55326,0.697626 1.62004,0.630843 0.0668,-0.06679 0.12236,-0.04041 0.12352,0.05859 0.002,0.099 1.12783,0.754387 2.50371,1.456408 1.37589,0.702021 2.5458,1.327156 2.5998,1.389189 0.054,0.06203 0.98185,0.624211 2.06187,1.249286 2.31462,1.339592 2.4881,1.449331 6.18565,3.912402 2.98035,1.985326 5.92004,4.034524 6.08746,4.243428 0.054,0.06739 0.67256,0.555998 1.37457,1.085802 2.28479,1.724287 3.99552,3.166227 7.87857,6.640645 1.0391,0.929759 1.94487,1.64963 2.01279,1.599708 0.0679,-0.04992 0.0809,-0.03345 0.0288,0.03663 -0.15434,0.207684 1.28562,1.45887 1.51546,1.316807 0.11598,-0.07167 0.15528,-0.04039 0.0874,0.06952 -0.0679,0.1099 0.20561,0.513705 0.60787,0.897337 0.40224,0.383633 1.25643,1.274128 1.89819,1.978875 0.64174,0.704747 1.2404,1.235879 1.33036,1.18029 0.09,-0.05559 0.13924,-0.02074 0.10952,0.07745 -0.0543,0.179708 2.10505,2.684105 3.80783,4.416261 0.5043,0.513016 0.86462,0.932757 0.80069,0.932757 -0.064,0 0.0887,0.218191 0.33926,0.48487 0.25054,0.266681 0.53004,0.438824 0.6211,0.382542 0.0911,-0.05629 0.12177,0.01273 0.0683,0.153326 -0.0535,0.140616 0.2746,0.653312 0.72913,1.139325 0.45457,0.486016 0.83223,0.927846 0.83932,0.981848 0.0283,0.216725 1.57328,2.160066 1.71717,2.160066 0.0849,0 0.15446,0.09089 0.15446,0.201999 0,0.111101 0.42104,0.751755 0.93561,1.423681 0.5146,0.671922 1.2878,1.7409 1.71824,2.375503 0.43044,0.634603 0.89307,1.19635 1.02809,1.24832 0.13498,0.05198 0.24545,0.213156 0.24545,0.358195 0,0.445837 1.19427,2.063962 1.42026,1.924299 0.12537,-0.07747 0.15446,-0.03854 0.0715,0.09567 -0.15126,0.244721 0.4613,1.435084 0.6716,1.30511 0.0702,-0.04341 0.12946,0.02766 0.13172,0.157951 0.002,0.130254 0.50488,1.054645 1.11692,2.054193 2.1932,3.581764 5.80366,10.354434 7.00801,13.145964 0.18867,0.4373 0.32319,0.55672 0.44242,0.39274 0.11329,-0.15583 0.13407,-0.11978 0.0614,0.10649 -0.11286,0.3511 1.17434,3.47051 1.53898,3.72958 0.11167,0.0794 0.13449,0.14562 0.0507,0.14727 -0.0838,10e-4 -0.0102,0.27716 0.16273,0.61224 0.17327,0.33508 0.43231,0.97574 0.57562,1.42369 0.14331,0.44793 0.72001,2.05157 1.28155,3.56362 4.09049,11.01423 6.68542,23.16518 7.65125,35.82759 0.30956,4.05813 0.251,15.25609 -0.10288,19.67525 -0.33173,4.14265 -1.05305,9.81591 -1.65083,12.98397 -0.20858,1.10541 -0.42595,2.27495 -0.48303,2.59896 -0.49277,2.79698 -2.42973,10.26155 -3.47507,13.39196 -0.22352,0.66936 -0.34,1.33211 -0.25881,1.47277 0.0812,0.14064 0.0747,0.18958 -0.0145,0.10875 -0.21098,-0.19133 -0.92167,1.82406 -0.77657,2.20222 0.061,0.15907 0.0476,0.22577 -0.0301,0.14822 -0.0776,-0.0776 -0.29427,0.27861 -0.48162,0.79147 -0.18735,0.51285 -0.56253,1.52894 -0.83374,2.25796 -0.27119,0.72902 -0.44597,1.32549 -0.38835,1.32549 0.0576,0 0.002,0.12284 -0.12184,0.27298 -0.37594,0.45299 -1.19621,2.70991 -1.06316,2.92519 0.0682,0.11043 0.0393,0.14842 -0.0642,0.0845 -0.16779,-0.10368 -1.14073,1.86379 -1.2876,2.60382 -0.0317,0.15943 -0.17485,0.41563 -0.31824,0.5693 -0.14342,0.15368 -0.21791,0.44309 -0.1656,0.64314 0.0523,0.20005 0.0324,0.32496 -0.0443,0.27758 -0.21041,-0.13003 -2.20969,4.00308 -2.0564,4.25117 0.0733,0.11838 0.0466,0.16178 -0.0593,0.0964 -0.24434,-0.15102 -1.09906,1.58174 -0.92175,1.86862 0.0727,0.11765 0.0511,0.16384 -0.0479,0.10267 -0.17295,-0.10695 -3.808,6.09631 -3.808,6.49838 0,0.10785 -0.0749,0.22549 -0.1665,0.26152 -0.34379,0.13515 -1.82147,2.71467 -1.68324,2.93834 0.087,0.14078 0.0587,0.17937 -0.0722,0.0985 -0.23603,-0.14587 -3.43536,4.46809 -3.23626,4.66721 0.0649,0.0649 0.0232,0.11803 -0.0926,0.11803 -0.21934,0 -2.30957,2.70951 -2.30957,2.99384 0,0.0892 -0.0989,0.22543 -0.21979,0.3025 -0.12088,0.077 -0.77692,0.84705 -1.45787,1.71108 -0.68093,0.86402 -2.14652,2.64273 -3.25683,3.95268 -1.11031,1.30996 -1.9565,2.45079 -1.88041,2.53521 0.0761,0.0845 0.0396,0.0972 -0.0812,0.0282 -0.12074,-0.0689 -0.43003,0.15198 -0.6873,0.4908 -0.2573,0.3388 -1.08635,1.24852 -1.84238,2.02157 -0.75602,0.77306 -2.01525,2.07545 -2.79826,2.89419 -0.78303,0.81873 -1.42369,1.46451 -1.42369,1.43502 0,-0.0294 -0.43953,0.3451 -0.97677,0.83246 -0.53719,0.48732 -0.9212,0.97593 -0.85331,1.08578 0.0679,0.10987 0.0289,0.14127 -0.0868,0.0698 -0.11562,-0.0715 -0.53976,0.24627 -0.94255,0.70604 -0.40276,0.45979 -0.6566,0.70342 -0.56405,0.54142 0.16345,-0.28607 -2.06854,1.60861 -3.41206,2.89645 -0.36619,0.35101 -0.7081,0.6382 -0.75977,0.6382 -0.13742,0 -3.04954,2.37666 -3.43562,2.80388 -0.18082,0.2001 -0.40174,0.37552 -0.49093,0.3898 -0.29418,0.0472 -2.81314,1.95653 -2.81314,2.13243 0,0.0947 -0.0731,0.15016 -0.16237,0.12314 -0.1711,-0.0517 -2.36466,1.42599 -2.87637,1.93768 -0.16474,0.16476 -0.29953,0.24701 -0.29953,0.18281 0,-0.0642 -0.22016,0.0275 -0.48924,0.20381 -0.26908,0.17632 -0.43217,0.41293 -0.3624,0.52579 0.0742,0.11992 0.0321,0.14665 -0.10117,0.0643 -0.21366,-0.13207 -1.42346,0.56864 -1.56721,0.90772 -0.036,0.0849 -0.15493,0.15438 -0.26426,0.15438 -0.10929,0 -0.43332,0.16658 -0.72001,0.37018 -0.72498,0.51485 -6.13494,3.67447 -6.98832,4.08141 -0.38522,0.1837 -0.70738,0.47229 -0.7159,0.64129 -0.009,0.169 -0.0565,0.20739 -0.10673,0.0854 -0.0942,-0.22948 -2.19499,0.77996 -2.47666,1.19009 -0.0794,0.11555 -0.14564,0.14154 -0.14729,0.0578 -0.003,-0.19276 -1.23013,0.42721 -1.42368,0.71974 -0.0794,0.11993 -0.14561,0.14338 -0.14727,0.0522 -0.002,-0.0913 -0.37855,0.0506 -0.83757,0.31533 -0.45902,0.26469 -1.25431,0.63855 -1.76732,0.83081 -0.51303,0.19226 -0.93277,0.43112 -0.93277,0.53084 0,0.0997 -0.0812,0.13106 -0.18054,0.0697 -0.0993,-0.0614 -0.30023,0 -0.4465,0.13569 -0.14627,0.13602 -0.39642,0.27372 -0.55584,0.30607 -0.15943,0.0324 -1.52702,0.57457 -3.03907,1.20499 -1.51204,0.63041 -3.32355,1.34678 -4.02557,1.59193 -0.70202,0.24515 -1.38686,0.58137 -1.52185,0.74715 -0.13501,0.16577 -0.24548,0.20919 -0.24548,0.0965 0,-0.1195 -0.48462,-0.035 -1.16284,0.20245 -0.63957,0.22406 -1.11192,0.48979 -1.04968,0.59047 0.0621,0.10066 0.0129,0.1212 -0.10953,0.0454 -0.23766,-0.14688 -1.80171,0.25155 -1.80171,0.45898 0,0.0679 -0.16519,0.13593 -0.36709,0.15114 -0.2019,0.0151 -1.14459,0.26481 -2.09488,0.55466 -2.07328,0.63239 -8.98127,2.42658 -9.81112,2.54821 -0.324,0.0475 -0.98676,0.17689 -1.47278,0.28755 -1.44245,0.32844 -3.8594,0.75736 -6.57838,1.16738 -7.07064,1.06625 -9.37412,1.22903 -18.85148,1.33228 -4.75213,0.0518 -8.68443,0.0493 -8.73844,-0.006 z m 12.82048,-8.77931 c 6.91117,-0.31949 12.4645,-0.97175 18.50044,-2.17292 4.71745,-0.93878 7.35736,-1.60095 7.22653,-1.81269 -0.0658,-0.1065 -0.0213,-0.13284 0.0989,-0.0585 0.30444,0.18813 5.7881,-1.28374 6.26872,-1.68259 0.13739,-0.11404 0.2498,-0.15529 0.2498,-0.0918 0,0.10126 3.35093,-0.97916 4.41832,-1.42443 0.21601,-0.0901 1.49731,-0.5876 2.84736,-1.10547 2.58254,-0.99071 3.81852,-1.52921 6.87293,-2.99444 1.02602,-0.49221 1.90969,-0.90467 1.9637,-0.91658 0.66449,-0.14661 8.47878,-4.4231 9.17503,-5.02119 0.1919,-0.16481 0.39307,-0.3014 0.44707,-0.30353 0.28648,-0.0112 1.33889,-0.76843 1.25553,-0.90332 -0.0538,-0.0869 0.0271,-0.1102 0.17954,-0.0517 0.1525,0.0585 0.54539,-0.11922 0.87313,-0.39498 0.32772,-0.27576 0.65276,-0.50139 0.72232,-0.50139 0.56347,0 8.7862,-6.06374 8.61922,-6.35613 -0.0699,-0.12225 -0.0564,-0.15858 0.0297,-0.0808 0.13236,0.11958 1.16211,-0.45683 1.47733,-0.82694 0.054,-0.0635 0.64704,-0.54192 1.31783,-1.06336 0.67082,-0.52145 1.20102,-1.04418 1.17821,-1.16164 -0.0228,-0.1175 0.0469,-0.2199 0.15494,-0.22763 0.10796,-0.008 0.44467,-0.17998 0.74812,-0.38284 0.42427,-0.28361 0.49233,-0.41144 0.29455,-0.55343 -0.18862,-0.13542 -0.16569,-0.15521 0.086,-0.0742 0.23659,0.0761 0.7552,-0.26812 1.66914,-1.10786 1.68867,-1.55145 7.56489,-7.42456 8.59438,-8.58981 5.67884,-6.42759 10.00158,-12.04971 9.78555,-12.72696 -0.0783,-0.24553 -0.0581,-0.26391 0.0795,-0.0722 0.14289,0.19904 0.25804,0.14511 0.50944,-0.23854 0.17866,-0.27267 0.32482,-0.58722 0.32482,-0.69902 0,-0.11177 0.0884,-0.20328 0.19636,-0.20328 0.10796,0 0.19639,-0.12519 0.19639,-0.27819 0,-0.153 0.0801,-0.30764 0.17797,-0.34365 0.33899,-0.12465 3.36531,-5.0964 3.23276,-5.31088 -0.0733,-0.11848 -0.0503,-0.16423 0.0508,-0.10166 0.41142,0.25426 7.30418,-13.01647 7.39636,-14.24037 0.0144,-0.18922 0.0852,-0.34404 0.15762,-0.34404 0.0724,0 0.17954,-0.15464 0.23801,-0.34364 0.0585,-0.189 0.64086,-1.70345 1.29414,-3.36543 0.65328,-1.66196 1.14449,-3.0918 1.09156,-3.17743 -0.053,-0.0856 -0.0119,-0.20773 0.091,-0.27136 0.103,-0.0637 0.50521,-1.10087 0.89389,-2.30498 0.55277,-1.71248 0.6517,-2.22417 0.45421,-2.34948 -0.18749,-0.11895 -0.16631,-0.16098 0.0822,-0.16322 0.23043,-0.002 0.37778,-0.23244 0.47288,-0.73939 0.076,-0.405 0.13169,-0.78056 0.12379,-0.83455 -0.008,-0.054 0.0741,-0.20479 0.1822,-0.33506 0.10806,-0.13028 0.13957,-0.32909 0.0699,-0.44184 -0.0697,-0.11274 -0.0473,-0.20497 0.05,-0.20497 0.14321,0 0.63752,-1.63326 0.74289,-2.45461 0.014,-0.10795 0.0765,-0.32892 0.13909,-0.49092 0.2728,-0.70558 1.35721,-5.66674 1.88859,-8.64026 2.04214,-11.42735 2.40604,-23.39885 1.08938,-35.83745 -0.48633,-4.59431 -1.73497,-11.29561 -3.04343,-16.33382 -0.96346,-3.70973 -2.31507,-8.15099 -2.55605,-8.39892 -0.0997,-0.10256 -0.18,-0.32351 -0.17837,-0.49092 0.004,-0.45091 -1.6268,-4.90955 -1.76494,-4.82419 -0.0651,0.0402 -0.13758,-0.1585 -0.161,-0.44168 -0.0234,-0.28316 -0.10852,-0.56399 -0.18896,-0.62404 -0.0805,-0.06 -0.17445,-0.27331 -0.20885,-0.47391 -0.18601,-1.08469 -3.57076,-8.20023 -3.82578,-8.04264 -0.1165,0.072 -0.1367,0.0232 -0.0491,-0.11847 0.14802,-0.23952 -1.95229,-4.56641 -2.27969,-4.69638 -0.0907,-0.036 -0.1649,-0.18433 -0.1649,-0.32962 0,-0.14529 -0.15464,-0.4188 -0.34365,-0.60781 -0.189,-0.189 -0.33281,-0.39414 -0.31955,-0.45586 0.067,-0.31219 -0.21035,-0.60464 -0.58511,-0.61694 -0.35495,-0.0117 -0.36766,-0.0348 -0.0811,-0.14845 0.29848,-0.11833 0.23896,-0.29481 -0.49092,-1.45518 -0.45685,-0.72629 -1.31472,-2.11027 -1.9064,-3.075525 -0.59166,-0.965255 -1.12922,-1.721956 -1.19458,-1.681575 -0.0653,0.04034 -0.11881,-0.04228 -0.11881,-0.183647 0,-0.271995 -3.27826,-5.018128 -3.97565,-5.755791 -0.22547,-0.23849 -0.40993,-0.488958 -0.40993,-0.556599 0,-0.313354 -1.84196,-2.423287 -2.01967,-2.313469 -0.11065,0.06835 -0.14444,0.03264 -0.0752,-0.07936 0.0693,-0.112003 -0.07,-0.457025 -0.30923,-0.766728 -0.88926,-1.150985 -2.59892,-3.162763 -3.98297,-4.686858 -0.78463,-0.864026 -1.64347,-1.812526 -1.90854,-2.10778 -0.26507,-0.295251 -0.53941,-0.494075 -0.60966,-0.44183 -0.0703,0.05224 -0.0833,0.03588 -0.0291,-0.03636 0.14386,-0.191588 -0.51228,-0.860745 -0.71882,-0.733097 -0.0963,0.05949 -0.15071,0.03204 -0.12104,-0.06098 0.061,-0.191394 -2.41256,-2.800955 -2.65771,-2.803776 -0.0874,-0.0011 -0.0958,0.100193 -0.0188,0.22488 0.0848,0.137282 0.0541,0.173532 -0.078,0.0919 -0.11998,-0.07416 -0.17401,-0.249782 -0.12009,-0.3903 0.0539,-0.140517 -0.28682,-0.601607 -0.75719,-1.024652 -0.4704,-0.423039 -1.60088,-1.441616 -2.51217,-2.263497 -2.36857,-2.136272 -4.46069,-3.905829 -4.6177,-3.905829 -0.0742,0 -0.27785,-0.162356 -0.45251,-0.360794 -0.60175,-0.683596 -3.20452,-2.583476 -3.38579,-2.471438 -0.0998,0.06174 -0.15735,-0.0047 -0.12768,-0.147807 0.0298,-0.143833 -0.0986,-0.248029 -0.28756,-0.233135 -0.18786,0.01482 -0.29798,-0.04357 -0.24472,-0.129741 0.1391,-0.225068 -1.51567,-1.396614 -1.81204,-1.282888 -0.1364,0.05235 -0.22696,-0.0066 -0.20126,-0.131101 0.0543,-0.263128 -2.2554,-1.893758 -5.74616,-4.056663 -3.89832,-2.415426 -4.00913,-2.477952 -3.84941,-2.171539 0.0982,0.188275 0.0605,0.178745 -0.1125,-0.02848 -0.14303,-0.171299 -0.61351,-0.533289 -1.04553,-0.804421 -0.70683,-0.443609 -6.73235,-3.56564 -6.9711,-3.611971 -0.054,-0.01045 -0.98185,-0.439849 -2.06189,-0.954151 -2.67987,-1.27614 -3.8187,-1.71153 -4.0702,-1.556097 -0.11683,0.07221 -0.15752,0.04245 -0.0904,-0.06615 0.11087,-0.179422 -1.43178,-0.830456 -1.61034,-0.679594 -0.042,0.03542 -0.13295,-0.02738 -0.20229,-0.139565 -0.16862,-0.272841 -5.49103,-2.223622 -5.70537,-2.091148 -0.0925,0.05718 -0.19785,0.03291 -0.23407,-0.05394 -0.0974,-0.233579 -2.73665,-1.083677 -6.8406,-2.203379 -15.18593,-4.143241 -31.62048,-5.252362 -47.68866,-3.218371 -4.22116,0.534338 -9.94019,1.582597 -12.79315,2.344903 -1.02605,0.274153 -2.04226,0.52715 -2.25826,0.562217 -1.49074,0.242013 -10.234273,2.952081 -10.594143,3.283668 -0.102608,0.09454 -0.304268,0.17189 -0.448149,0.17189 -0.143859,0 -0.59011,0.146653 -0.991661,0.325896 -0.401539,0.179244 -0.774258,0.336045 -0.828259,0.348451 -0.054,0.01242 -0.686689,0.232748 -1.40598,0.489647 -0.997339,0.356213 -1.284285,0.541535 -1.208781,0.780676 0.0738,0.23372 0.0527,0.249236 -0.08283,0.06093 -0.183388,-0.25481 -0.287049,-0.222867 -2.702184,0.832638 -0.324223,0.141697 -0.876686,0.367079 -1.227698,0.500849 -0.35101,0.133769 -0.638199,0.306136 -0.638199,0.383032 0,0.07691 -0.115163,0.13982 -0.255913,0.13982 -0.571939,0 -9.695387,4.78769 -10.00139,5.248406 -0.07935,0.119467 -0.145624,0.152842 -0.147278,0.07417 -0.0036,-0.169781 -3.01706,1.622848 -3.112191,1.851342 -0.036,0.08646 -0.193415,0.157218 -0.349811,0.157218 -0.156392,0 -0.33502,0.13204 -0.396951,0.293426 -0.06193,0.161382 -0.175485,0.254561 -0.252344,0.207055 -0.216297,-0.133678 -1.804408,0.983403 -1.636612,1.151196 0.08161,0.08161 0.06001,0.130549 -0.04799,0.108755 -0.390118,-0.07871 -0.708335,0.01034 -0.609338,0.170529 0.05563,0.09001 -0.008,0.163645 -0.14174,0.163645 -0.326761,0 -1.310804,0.655764 -1.310804,0.873519 0,0.09559 -0.106447,0.151691 -0.236535,0.124693 -0.130096,-0.027 -0.240554,0.08335 -0.245462,0.2452 -0.005,0.161864 -0.147386,0.294415 -0.316616,0.294555 -0.348303,1.96e-4 -1.750796,0.903936 -1.752849,1.129385 -7.94e-4,0.081 -0.113078,0.147277 -0.249645,0.147277 -0.257212,0 -2.545572,1.764356 -3.124197,2.408801 -0.180827,0.201393 -0.386813,0.338273 -0.457743,0.304179 -0.07094,-0.0341 -0.251227,0.158924 -0.400653,0.428932 -0.149426,0.27001 -0.274817,0.378523 -0.278643,0.241144 -0.0039,-0.13738 -0.603433,0.244813 -1.332452,0.84932 -0.729023,0.604504 -1.296041,1.20292 -1.260039,1.329812 0.036,0.126891 0.0016,0.166904 -0.07635,0.08891 -0.151341,-0.151339 -0.520001,0.131287 -2.836471,2.174531 -2.493766,2.19963 -4.105047,3.82795 -3.983116,4.025239 0.06402,0.10359 0.03303,0.136824 -0.06887,0.07385 -0.332524,-0.20551 -6.638047,6.432248 -6.430029,6.768825 0.05699,0.09223 0.01561,0.143385 -0.09196,0.11371 -0.434954,-0.119994 -7.206761,8.548078 -6.973245,8.925917 0.07449,0.120531 0.0399,0.155683 -0.08016,0.08147 -0.122396,-0.07565 -0.631034,0.510117 -1.209892,1.393338 -0.549293,0.838118 -1.086482,1.630577 -1.193752,1.761027 -0.107267,0.130451 -0.195032,0.321903 -0.195032,0.425469 0,0.103563 -0.06628,0.217755 -0.147278,0.253746 -0.175953,0.07814 -1.417772,1.944627 -1.938025,2.912808 -0.203126,0.37801 -0.431268,0.73403 -0.506987,0.79114 -0.239628,0.18073 -3.156805,5.38325 -3.162468,5.63996 -0.0031,0.13501 -0.06488,0.24547 -0.137537,0.24547 -0.199956,0 -0.607905,0.98699 -0.488081,1.18085 0.05764,0.0933 -0.02208,0.2413 -0.177167,0.32893 -0.414552,0.23428 -3.048995,5.59901 -3.308676,6.73773 -0.01232,0.054 -0.139162,0.21496 -0.28188,0.35767 -0.142718,0.14272 -0.259488,0.41224 -0.259488,0.59894 0,0.18669 -0.07989,0.42339 -0.177525,0.52599 -0.171873,0.18061 -2.393133,5.68131 -2.454234,6.07763 -0.01666,0.10807 -0.08216,0.28474 -0.145576,0.39273 -0.211242,0.35977 -1.901442,5.66105 -2.598246,8.14935 -3.466337,12.37838 -5.0388109,25.81789 -4.455615,38.08095 0.407317,8.56477 1.154019,14.13465 3.05572,22.79361 0.542141,2.46851 1.886369,7.39508 2.277817,8.34816 0.132521,0.32266 0.228343,0.64793 0.212939,0.72283 -0.05636,0.27402 2.902001,8.5103 3.264965,9.08988 0.06878,0.10986 0.140602,0.28803 0.159613,0.39604 0.129351,0.73488 2.315674,5.37332 2.483746,5.26944 0.113619,-0.0702 0.146209,-0.0322 0.07339,0.0857 -0.138933,0.22479 0.238056,1.22327 0.461871,1.22327 0.07267,0 0.133941,0.11042 0.136166,0.24545 0.008,0.49331 1.498698,3.27362 1.691241,3.15462 0.110438,-0.0683 0.137986,-0.0251 0.06222,0.0975 -0.159425,0.25795 0.185039,0.96073 2.11948,4.32408 2.049828,3.56396 2.676676,4.54963 2.89346,4.54963 0.105111,0 0.143682,0.0767 0.0857,0.17055 -0.200784,0.32488 6.051923,9.20755 6.407838,9.10305 0.101071,-0.0297 0.137959,0.0203 0.08195,0.11076 -0.09138,0.14784 1.415645,2.1264 2.798556,3.67416 0.289496,0.32401 0.65655,0.77661 0.815673,1.00577 0.728099,1.04856 3.202112,3.5906 3.384688,3.47776 0.120433,-0.0745 0.144441,-0.0301 0.05873,0.10863 -0.152755,0.24714 4.917826,5.46466 5.222237,5.37357 0.09022,-0.027 0.164028,0.0638 0.164028,0.20173 0,0.22952 0.954477,1.13376 4.578557,4.33756 2.186114,1.93259 4.709895,3.84216 4.912487,3.71695 0.10546,-0.0652 0.136845,-0.0296 0.06974,0.0789 -0.142653,0.23084 2.171486,1.95641 2.493997,1.85971 0.120071,-0.036 0.151482,0.002 0.06982,0.083 -0.147608,0.14762 1.789366,1.64011 2.054651,1.58315 0.07636,-0.0163 0.253087,0.1144 0.39274,0.29062 0.571812,0.7216 8.538731,5.72172 9.130998,5.73071 0.130254,0.002 0.200313,0.0627 0.155686,0.1349 -0.116316,0.18818 1.266439,0.81456 1.49135,0.67557 0.103265,-0.0639 0.163468,-0.0116 0.133795,0.1161 -0.08421,0.3623 10.545826,5.59495 12.022767,5.91822 0.162005,0.0355 0.338738,0.11738 0.392737,0.18203 0.263673,0.3157 8.217061,3.16455 8.443711,3.02448 0.0897,-0.0554 0.193911,-0.008 0.231691,0.10526 0.0378,0.11332 0.28833,0.2345 0.556789,0.26927 0.268452,0.0348 0.752091,0.16934 1.074761,0.29898 0.322649,0.12965 1.648151,0.53267 2.94553,0.8956 7.905405,2.21153 16.293555,3.66363 24.352295,4.21576 5.94545,0.40735 8.57915,0.44507 13.90051,0.19907 z m -8.87531,-50.46492 c -6.73259,-0.46386 -13.21568,-1.77685 -18.8656,-3.82074 -1.3946,-0.50452 -2.62181,-0.8393 -2.84737,-0.77681 -0.27911,0.0773 -0.3194,0.0563 -0.13617,-0.071 0.18767,-0.13043 -0.097,-0.33266 -1.02033,-0.72512 -0.70431,-0.29933 -1.33126,-0.53116 -1.39322,-0.51516 -0.0619,0.0161 -0.22136,-0.0609 -0.35425,-0.17102 -0.13288,-0.11008 -1.16945,-0.66943 -2.30347,-1.24303 -1.13404,-0.57362 -2.982482,-1.58606 -4.107672,-2.24985 -1.12517,-0.66381 -2.132939,-1.15305 -2.239489,-1.0872 -0.108001,0.0668 -0.131961,0.0198 -0.0541,-0.10616 0.0834,-0.13492 -0.0626,-0.31798 -0.362402,-0.45461 -0.276098,-0.12579 -0.501989,-0.29696 -0.501989,-0.38033 0,-0.16822 -0.79112,-0.47731 -1.045541,-0.4085 -0.089,0.024 -0.114368,-0.033 -0.0563,-0.12702 0.149701,-0.24222 -2.40596,-2.03877 -2.668979,-1.87623 -0.126929,0.0785 -0.162039,0.045 -0.0845,-0.0805 0.0764,-0.12364 -0.470411,-0.6992 -1.28809,-1.35586 -1.30556,-1.04842 -2.152211,-1.79523 -4.036568,-3.56055 -0.543475,-0.50912 -0.737013,-0.59529 -0.88225,-0.39275 -0.141632,0.19754 -0.161822,0.18309 -0.08457,-0.0605 0.06909,-0.21787 -0.541909,-0.954 -1.913911,-2.30588 -1.108472,-1.09221 -2.073648,-1.94232 -2.144842,-1.88912 -0.07119,0.0532 -0.08603,0.0386 -0.03296,-0.0325 0.05307,-0.0711 -0.0011,-0.24668 -0.120153,-0.39024 -0.122264,-0.14732 -0.150714,-0.41181 -0.06531,-0.60718 0.08322,-0.19038 0.135112,-0.41899 0.115289,-0.50802 -0.01982,-0.089 0.04151,-0.11394 0.13629,-0.0553 0.09479,0.0586 0.802423,-0.57551 1.572543,-1.40907 0.770115,-0.83358 2.461712,-2.60712 3.759105,-3.9412 1.359699,-1.39817 2.304319,-2.52107 2.230051,-2.65099 -0.0709,-0.12397 -0.0579,-0.1612 0.0289,-0.0827 0.232312,0.21005 5.06309,-4.71026 4.893672,-4.98437 -0.0786,-0.12729 -0.0543,-0.17349 0.0557,-0.10548 0.254958,0.15757 1.489488,-1.11486 1.292228,-1.3319 -0.0829,-0.0912 -0.0511,-0.10897 0.0706,-0.0394 0.300239,0.17138 3.460589,-3.15831 3.28626,-3.46233 -0.0738,-0.12865 -0.0618,-0.16839 0.0266,-0.0882 0.219842,0.19916 0.714351,-0.23822 0.557072,-0.49272 -0.0695,-0.11245 -0.0372,-0.14935 0.0718,-0.082 0.108969,0.0674 0.3942,-0.0862 0.633809,-0.34125 0.239599,-0.25504 0.3629,-0.50294 0.274011,-0.55086 -0.0889,-0.0479 -0.0563,-0.0622 0.0724,-0.0317 0.12873,0.0305 0.730321,-0.48057 1.336886,-1.13573 l 1.10283,-1.19119 0.43045,0.38966 c 0.23672,0.21433 0.64431,0.55627 0.90576,0.7599 0.26146,0.20363 0.66827,0.56804 0.90406,0.80977 1.0267,1.05267 6.46415,5.51919 6.60952,5.42932 0.0883,-0.0545 0.16042,-0.0229 0.16042,0.0702 0,0.29633 2.35428,1.84207 2.58678,1.69838 0.12578,-0.0777 0.16945,-0.051 0.10015,0.061 -0.14063,0.22752 2.78285,1.88464 4.97147,2.81799 2.42686,1.03495 2.61154,1.10788 3.63284,1.43422 4.59098,1.467 10.14658,2.01864 14.98091,1.48752 2.36183,-0.25949 6.40042,-1.11163 6.48922,-1.36922 0.0363,-0.10504 0.13928,-0.1457 0.22899,-0.0903 0.0898,0.0554 0.41354,-0.002 0.71961,-0.12714 0.30609,-0.12537 0.67639,-0.25211 0.82292,-0.28166 0.68616,-0.13831 2.38457,-0.93583 2.38457,-1.1197 0,-0.11346 0.0554,-0.15089 0.12308,-0.0832 0.2905,0.2905 4.28545,-2.30852 4.0741,-2.65051 -0.0771,-0.12482 -0.0448,-0.16184 0.076,-0.0871 0.29502,0.18234 1.44052,-0.82834 1.37631,-1.21431 -0.0335,-0.20172 0.0875,-0.32001 0.33039,-0.32295 0.77,-0.009 3.74912,-4.3168 3.53059,-5.10478 -0.089,-0.32131 -0.0706,-0.34133 0.0959,-0.10368 0.11341,0.16201 0.20819,0.25038 0.21059,0.19637 0.002,-0.054 0.2332,-0.76094 0.51288,-1.57094 0.40784,-1.18125 0.52931,-1.97817 0.61372,-4.02582 0.0993,-2.40868 -0.18015,-5.39972 -0.5045,-5.40007 -0.0713,-7e-5 -0.1418,-0.21339 -0.1568,-0.47403 -0.0424,-0.73721 -1.43073,-3.48553 -1.68219,-3.33012 -0.12196,0.0754 -0.1617,0.0448 -0.0909,-0.0697 0.23455,-0.37952 -1.24146,-2.01647 -3.01071,-3.339 -1.23498,-0.92316 -3.69884,-2.21997 -4.30449,-2.26559 -0.22461,-0.017 -0.40838,-0.09 -0.40838,-0.16243 0,-0.14087 -0.0973,-0.17256 -2.35643,-0.76764 -3.68776,-0.97139 -8.1834,-1.36424 -15.70957,-1.3728 -5.1285,-0.006 -8.15012,-0.24914 -11.38943,-0.91711 -1.35005,-0.2784 -2.58718,-0.52767 -2.74917,-0.55396 -0.16202,-0.0263 -0.6231,-0.19223 -1.02464,-0.36876 -0.40154,-0.17655 -0.90444,-0.32098 -1.11752,-0.32098 -0.21312,0 -0.44581,-0.0943 -0.51711,-0.20976 -0.0713,-0.11537 -0.25325,-0.16232 -0.40433,-0.10436 -0.15108,0.0579 -0.27469,0.0267 -0.27469,-0.0696 0,-0.1785 -1.35258,-0.71152 -1.62005,-0.63843 -0.081,0.0221 -0.14727,-0.0533 -0.14727,-0.16771 0,-0.11438 -0.0884,-0.15333 -0.19638,-0.0866 -0.10795,0.0668 -0.19711,0.0499 -0.19802,-0.0375 -10e-4,-0.0874 -0.59673,-0.46814 -1.32407,-0.84615 -2.62464,-1.36409 -5.47905,-3.82423 -7.32368,-6.31207 -0.61969,-0.83578 -1.20253,-1.45853 -1.29516,-1.38388 -0.0927,0.0747 -0.10651,0.0591 -0.0307,-0.0347 0.0758,-0.0938 -0.21449,-0.87115 -0.645055,-1.72748 -1.711491,-3.404 -2.536999,-7.03265 -2.535679,-11.14609 0.0011,-2.93773 0.39587,-5.58578 1.173639,-7.86927 0.312671,-0.91803 0.59609,-1.80168 0.629801,-1.9637 0.0337,-0.16199 0.110649,-0.33874 0.171029,-0.39274 0.0604,-0.054 0.449659,-0.71674 0.865135,-1.47277 0.41546,-0.75602 1.02744,-1.77223 1.35995,-2.25824 0.89591,-1.30954 3.21712,-4.0527 3.92241,-4.63545 0.33863,-0.2798 1.01334,-0.87663 1.49937,-1.32628 0.486,-0.44966 1.14067,-0.94907 1.45479,-1.10984 0.31413,-0.16075 0.82223,-0.52657 1.12913,-0.81292 0.3069,-0.28633 0.55799,-0.48881 0.55799,-0.44996 0,0.11823 3.03506,-1.54536 3.16386,-1.7342 0.0661,-0.0968 0.18033,-0.15943 0.25389,-0.13901 0.22061,0.0612 1.29512,-0.43217 1.29512,-0.59468 0,-0.0829 0.11043,-0.1402 0.24545,-0.12733 0.13501,0.0128 1.35004,-0.34436 2.70009,-0.79382 2.52534,-0.84073 5.05837,-1.41972 8.14933,-1.86274 2.31684,-0.33207 9.49424,-0.32927 11.78217,0.004 2.71918,0.39679 3.37011,0.5103 3.82922,0.6677 1.05148,0.36054 4.14835,1.11596 4.35938,1.06336 0.14041,-0.0349 0.17939,-0.0234 0.0866,0.0259 -0.0928,0.0492 0.7467,0.43307 1.86551,0.85296 1.11881,0.41991 2.85946,1.16044 3.86813,1.64564 1.00865,0.4852 1.95859,0.88219 2.11097,0.88219 0.15238,0 0.27705,0.08 0.27705,0.17769 0,0.21439 1.74637,1.26235 2.1036,1.26235 0.13906,0 0.21087,0.042 0.15957,0.0932 -0.0512,0.0512 0.50099,0.48905 1.2273,0.97279 0.72632,0.48372 1.68892,1.17814 2.13911,1.54314 0.45019,0.36501 0.88188,0.66363 0.95933,0.66363 0.0775,0 0.33467,0.19882 0.57162,0.44184 0.23696,0.24301 0.62885,0.6009 0.87088,0.79533 0.43461,0.34918 0.4489,0.34328 1.16263,-0.47933 0.39744,-0.45808 0.91843,-1.00603 1.15775,-1.21768 0.23933,-0.21164 0.3874,-0.46206 0.32904,-0.55646 -0.0584,-0.0944 0.0112,-0.14737 0.15399,-0.11769 0.14303,0.0296 0.23577,-0.0631 0.2061,-0.2061 -0.0297,-0.14304 0.0247,-0.2114 0.12104,-0.1519 0.23706,0.14651 0.85564,-0.55965 0.66973,-0.76459 -0.0812,-0.0896 -0.0502,-0.10728 0.0689,-0.0395 0.11907,0.0678 0.6351,-0.33772 1.14677,-0.90126 0.51165,-0.56354 1.91129,-2.01712 3.11033,-3.23016 l 2.18007,-2.20553 -0.45893,-0.48849 c -0.25239,-0.26867 -0.54808,-0.43339 -0.65707,-0.36603 -0.11303,0.0699 -0.1376,0.0246 -0.0573,-0.10559 0.0818,-0.13223 -0.009,-0.28248 -0.21511,-0.35748 -0.19585,-0.0712 -0.57701,-0.37355 -0.84702,-0.67203 -1.2203,-1.34892 -8.50531,-6.33951 -9.26403,-6.34633 -0.18109,-0.001 -0.29413,-0.0597 -0.25123,-0.12917 0.0983,-0.15906 -1.86448,-1.23935 -2.00198,-1.10186 -0.0556,0.0556 -0.27387,-0.0713 -0.48482,-0.28225 -0.21096,-0.21094 -0.46114,-0.33557 -0.55598,-0.27696 -0.0948,0.0586 -0.20208,0.0293 -0.23829,-0.0649 -0.0918,-0.23908 -5.52849,-2.5801 -5.99193,-2.5801 -0.0475,0 -0.0305,0.11044 0.0379,0.24548 0.0684,0.13498 -0.0138,0.0755 -0.18239,-0.13245 -0.18785,-0.23144 -0.56648,-0.38366 -0.9769,-0.39274 -0.3686,-0.008 -0.63364,-0.0746 -0.58899,-0.14746 0.0934,-0.15252 -1.92527,-0.77179 -2.66708,-0.81817 -0.27327,-0.0171 -0.54103,-0.0789 -0.59504,-0.13734 -0.13301,-0.14399 -2.66906,-0.71492 -4.71287,-1.06098 -5.92167,-1.00267 -13.86476,-1.07745 -19.03277,-0.1792 -0.92631,0.16101 -1.81677,0.29753 -1.97876,0.30341 -1.51455,0.0549 -7.70432,1.69357 -7.52052,1.99095 0.0671,0.10863 0.0183,0.13049 -0.11201,0.0499 -0.12712,-0.0787 -0.69307,0.007 -1.25766,0.18992 -1.68958,0.54769 -5.33357,2.06864 -5.46477,2.28092 -0.0671,0.10874 -0.18234,0.18098 -0.2559,0.16056 -0.0736,-0.0205 -0.39967,0.073 -0.72468,0.20767 -0.3975,0.16464 -0.55396,0.34108 -0.47799,0.53903 0.0842,0.2195 0.0494,0.24211 -0.13705,0.0889 -0.18275,-0.15006 -0.63332,0.0178 -1.67583,0.6246 -0.78423,0.45642 -1.35862,0.90392 -1.27641,0.99445 0.0822,0.0906 0.0461,0.10537 -0.0802,0.033 -0.1263,-0.0723 -0.3588,-0.002 -0.51663,0.15552 -0.15787,0.15787 -0.32787,0.24617 -0.3778,0.19624 -0.0499,-0.0499 -0.32555,0.1268 -0.61249,0.39272 -0.286955,0.2659 -0.521706,0.43669 -0.521706,0.3795 0,-0.14879 -2.432508,1.56563 -3.871899,2.7289 -0.6715,0.54268 -1.165961,1.07561 -1.098791,1.18431 0.0671,0.10863 0.0285,0.13974 -0.0859,0.0691 -0.25686,-0.15877 -1.850919,1.14021 -1.65967,1.35243 0.0759,0.0842 0.0433,0.0992 -0.0724,0.0335 -0.26602,-0.1512 -4.03443,3.48849 -3.964932,3.82949 0.0283,0.13896 -0.0537,0.23235 -0.18219,0.2075 -0.128508,-0.0249 -0.63083,0.40885 -1.116258,0.96377 l -0.882581,1.00892 -0.55289,-0.36923 c -0.304075,-0.20307 -0.619146,-0.34958 -0.700148,-0.32556 -0.081,0.024 -0.147275,-0.0317 -0.147275,-0.12374 0,-0.31198 -2.350114,-2.01974 -2.582119,-1.87635 -0.138052,0.0854 -0.174784,0.0551 -0.09327,-0.0768 0.07936,-0.1284 -0.462886,-0.66718 -1.322988,-1.31455 -1.161447,-0.87416 -1.451801,-1.19505 -1.429618,-1.57995 0.01532,-0.26564 0.1162,-0.48392 0.224203,-0.48506 0.108,-0.001 0.50565,-0.35904 0.883663,-0.79534 0.776174,-0.89582 4.723511,-4.81507 6.129322,-6.08568 0.509032,-0.46008 0.885531,-0.9012 0.83667,-0.98025 -0.0489,-0.0791 0.0285,-0.13165 0.17208,-0.11684 0.14351,0.0149 0.60647,-0.26128 1.02883,-0.61353 0.422352,-0.35226 1.563211,-1.22307 2.53524,-1.93514 0.972021,-0.71208 1.811512,-1.35172 1.865511,-1.42142 0.054,-0.0697 0.363281,-0.27915 0.687289,-0.46542 0.324012,-0.18627 0.568071,-0.42609 0.54237,-0.53295 -0.02569,-0.10683 0.0848,-0.14381 0.24547,-0.0822 0.1607,0.0616 0.292192,0.0143 0.292192,-0.10525 0,-0.11957 0.110469,-0.19529 0.24546,-0.16828 0.135008,0.027 0.221189,-0.068 0.19151,-0.21098 -0.0323,-0.1554 0.039,-0.2026 0.17707,-0.11727 0.129958,0.0803 0.34684,-0.0156 0.495779,-0.2193 0.145621,-0.19915 0.264771,-0.2973 0.264771,-0.2181 0,0.186 1.731539,-0.80011 2.307339,-1.31401 0.243009,-0.21689 0.44183,-0.33248 0.44183,-0.25687 0,0.0756 0.267991,-10e-4 0.595526,-0.1705 0.34565,-0.17875 0.5389,-0.39959 0.46059,-0.526314 -0.0824,-0.133456 -0.0454,-0.16306 0.0952,-0.0761 0.12658,0.07824 0.86925,-0.160677 1.6504,-0.530876 0.78113,-0.370211 1.61907,-0.735799 1.86208,-0.812427 0.24301,-0.07661 0.44183,-0.221708 0.44183,-0.322443 0,-0.100753 0.0662,-0.163882 0.14728,-0.140361 0.13597,0.03943 2.70396,-0.861661 4.07467,-1.429864 0.32402,-0.134313 0.7126,-0.268907 0.86352,-0.299098 0.86017,-0.17203 1.98384,-0.582525 1.98384,-0.724697 0,-0.09075 0.0753,-0.118573 0.16728,-0.06174 0.092,0.0569 0.95359,-0.103569 1.91462,-0.356418 0.961,-0.252894 2.0124,-0.516054 2.33641,-0.584784 0.32402,-0.06871 0.76585,-0.162034 0.98185,-0.207317 7.15491,-1.5 16.46879,-1.795992 23.95707,-0.761355 1.29605,0.179068 2.72357,0.332632 3.17226,0.341233 0.4487,0.009 0.78085,0.0722 0.73811,0.141396 -0.0428,0.06916 0.25289,0.185211 0.65696,0.257877 3.04349,0.547327 8.27371,2.114708 11.84211,3.548821 1.202,0.483077 2.27894,0.820555 2.3932,0.749949 0.11423,-0.0706 0.15556,-0.04401 0.0918,0.05919 -0.11315,0.183057 4.1326,2.366718 4.42443,2.275578 0.081,-0.0253 0.14728,0.0519 0.14728,0.17138 0,0.11956 0.13715,0.16475 0.30475,0.10045 0.16762,-0.0643 0.26072,-0.0456 0.20691,0.0414 -0.14196,0.22967 2.40333,1.64654 2.66612,1.48413 0.1268,-0.0783 0.16707,-0.0491 0.0943,0.0685 -0.0697,0.11288 0.0933,0.34947 0.36239,0.52579 0.26909,0.1763 0.49194,0.25224 0.49523,0.16875 0.003,-0.0834 0.0971,0.004 0.20842,0.19597 0.11133,0.19129 0.2854,0.29653 0.38676,0.23388 0.10137,-0.0627 0.18431,-0.0112 0.18431,0.11506 0,0.12626 0.13672,0.1765 0.30475,0.11202 0.16762,-0.0643 0.25417,-0.035 0.19234,0.065 -0.12406,0.20072 1.58228,1.45 1.98049,1.45 0.13738,0 0.23259,0.0644 0.2116,0.1432 -0.0383,0.14388 1.70345,1.55869 1.91896,1.55869 0.0633,0 0.40004,0.25254 0.74817,0.56122 0.34813,0.30866 1.16316,1.01931 1.81119,1.5792 0.64801,0.55987 1.41844,1.23799 1.71205,1.50692 0.29361,0.26891 0.57529,0.49155 0.62595,0.49475 0.17584,0.0112 5.90931,5.91006 5.87481,6.0443 -0.0191,0.0743 -0.5935,0.70909 -1.27642,1.41079 -0.68294,0.70169 -3.06735,3.17323 -5.2987,5.49234 -2.23137,2.31912 -4.52351,4.68703 -5.09368,5.26204 -0.84284,0.84999 -0.9838,1.08295 -0.75404,1.24584 0.23301,0.16517 0.22543,0.18215 -0.0432,0.0967 -0.38667,-0.12307 -5.75386,5.25993 -5.55893,5.57531 0.0665,0.10762 0.0112,0.1715 -0.12301,0.14183 -0.13421,-0.0297 -0.3475,0.14433 -0.47398,0.38669 -0.12645,0.24237 -0.27733,0.39329 -0.33525,0.33536 -0.0579,-0.058 -0.32229,0.14143 -0.58749,0.443 -0.26519,0.30157 -0.8875,0.93514 -1.38289,1.40794 l -0.90072,0.85962 -0.47551,-0.46688 c -1.29385,-1.2704 -3.56847,-3.21039 -3.71323,-3.16698 -0.09,0.027 -0.16365,-0.0333 -0.16365,-0.13394 0,-0.29276 -3.47017,-3.15523 -3.82508,-3.15523 -0.17702,0 -0.27221,-0.0803 -0.21155,-0.17851 0.23451,-0.37943 -6.16782,-4.29036 -6.59315,-4.0275 -0.13755,0.085 -0.17909,0.0586 -0.10256,-0.0653 0.1446,-0.23398 -3.82966,-1.98696 -4.66065,-2.05573 -0.28213,-0.0234 -0.51296,-0.10135 -0.51296,-0.1732 0,-0.2103 -4.84637,-1.31034 -6.77477,-1.53776 -4.58651,-0.54088 -10.8304,0.0353 -15.02227,1.38618 -2.12341,0.68433 -4.91774,1.96267 -4.77942,2.18647 0.07,0.11325 0.0352,0.14899 -0.0774,0.0794 -0.26365,-0.16294 -2.79138,1.49498 -4.13981,2.71525 -0.79302,0.71766 -0.98165,0.98897 -0.78548,1.12973 0.19524,0.14009 0.1799,0.16042 -0.0629,0.0833 -0.26886,-0.0854 -1.15165,0.63362 -1.15165,0.93788 0,0.0466 -0.26803,0.37722 -0.5956,0.73488 -0.86117,0.94035 -2.46788,4.34526 -2.82701,5.99109 -0.39578,1.81368 -0.39594,5.15062 -5.3e-4,7.06588 0.34209,1.65615 0.98213,3.42399 1.31389,3.62903 0.11874,0.0734 0.23751,0.28072 0.26394,0.46076 0.11862,0.80829 1.95881,2.91986 3.63949,4.17623 1.21072,0.90509 3.40225,2.04792 3.58215,1.86802 0.067,-0.067 0.12181,-0.0213 0.12181,0.10157 0,0.28065 3.22873,1.29267 5.8043,1.81932 1.56204,0.31939 2.9729,0.41806 7.05791,0.49355 10.21769,0.18884 15.24774,0.56717 18.45873,1.38837 0.64802,0.16574 1.35496,0.32557 1.57096,0.35519 0.216,0.0295 0.52529,0.10908 0.68728,0.17654 0.16202,0.0674 0.91314,0.3354 1.66915,0.59539 0.75601,0.26 1.69474,0.61061 2.08603,0.77916 0.3913,0.16854 0.76686,0.25103 0.83457,0.18331 0.0677,-0.0677 0.12312,-0.0149 0.12312,0.11756 0,0.13238 0.0884,0.18608 0.19637,0.11933 0.10796,-0.0668 0.19637,-0.0442 0.19637,0.0502 0,0.26377 1.37129,0.85729 1.63354,0.70702 0.12759,-0.0731 0.16774,-0.0618 0.0891,0.025 -0.0784,0.0868 0.62842,0.68301 1.57096,1.32486 0.94254,0.64184 1.85344,1.29211 2.0242,1.44499 0.17078,0.15291 0.38377,0.21155 0.47332,0.13029 0.0895,-0.0812 0.10785,-0.0511 0.0407,0.0668 -0.0671,0.11795 0.32937,0.64714 0.88117,1.17594 0.55179,0.52882 1.35361,1.42552 1.7818,1.99268 0.42819,0.56713 0.87065,0.97425 0.98321,0.90467 0.1274,-0.0787 0.14481,-0.0296 0.0461,0.13003 -0.0964,0.15595 -0.043,0.34103 0.13641,0.47217 0.16222,0.11861 0.29364,0.25985 0.29205,0.31386 -0.0102,0.35445 0.73224,1.54405 0.8995,1.4407 0.11319,-0.07 0.14725,-0.0332 0.076,0.0822 -0.0711,0.11493 0.0568,0.63669 0.284,1.15945 1.43154,3.29341 2.02328,6.72181 1.88756,10.936 -0.115,3.57064 -0.42433,5.25186 -1.45061,7.88413 -0.37897,0.97203 -0.69975,1.91549 -0.71284,2.09655 -0.0131,0.18109 -0.0932,0.28632 -0.17809,0.23388 -0.0849,-0.0524 -0.1543,0.007 -0.1543,0.13137 0,0.12472 -0.18274,0.4834 -0.40611,0.79708 -0.22336,0.31367 -0.35591,0.57032 -0.29455,0.57032 0.0614,0 -0.0652,0.17673 -0.28119,0.39274 -0.216,0.21601 -0.39273,0.51793 -0.39273,0.67094 0,0.15299 -0.0669,0.30764 -0.14874,0.34365 -0.37662,0.16573 -1.43526,1.751 -1.30744,1.95782 0.0823,0.13311 0.0577,0.17795 -0.0582,0.10627 -0.25467,-0.15739 -0.89329,0.53048 -0.69522,0.74882 0.0812,0.0896 0.0571,0.11155 -0.0538,0.0488 -0.11077,-0.0627 -0.55264,0.31151 -0.98185,0.83164 -0.42923,0.52014 -1.02498,1.0934 -1.32389,1.27394 -0.29911,0.18065 -0.48415,0.42426 -0.4115,0.5418 0.0754,0.12195 0.0415,0.15762 -0.079,0.0832 -0.11603,-0.0717 -0.40279,0.11346 -0.63723,0.41148 -0.23444,0.29805 -0.44035,0.49957 -0.45756,0.44786 -0.0172,-0.0518 -0.60569,0.31391 -1.30771,0.81254 -2.62891,1.86727 -5.65848,3.36325 -9.033,4.46047 -4.91172,1.59703 -9.9743,2.29344 -15.41499,2.12053 -3.23384,-0.10278 -6.91483,-0.56173 -8.91639,-1.11171 -0.36788,-0.10107 -0.74343,-0.13771 -0.83458,-0.0814 -0.0911,0.0563 -0.16563,0.009 -0.16563,-0.10559 0,-0.11438 -0.16125,-0.20796 -0.35835,-0.20796 -0.19708,0 -1.00332,-0.21937 -1.79163,-0.48749 -0.7883,-0.26812 -1.50316,-0.4443 -1.58858,-0.39152 -0.0855,0.0528 -0.18493,0.0291 -0.22116,-0.0525 -0.0362,-0.0816 -0.81697,-0.45089 -1.735,-0.82048 -0.91803,-0.36958 -2.5528,-1.11049 -3.63284,-1.64645 -1.08004,-0.53599 -1.9875,-0.96079 -2.0166,-0.94401 -0.0291,0.0167 -0.24458,-0.14805 -0.47886,-0.36631 -0.23426,-0.21826 -0.49372,-0.39683 -0.57657,-0.39683 -0.0829,0 -0.65875,-0.35595 -1.27979,-0.79097 -0.62103,-0.43505 -1.24811,-0.74533 -1.3935,-0.68955 -0.14539,0.0558 -0.21519,0.0219 -0.15509,-0.0754 0.06,-0.0973 -0.35507,-0.51135 -0.92257,-0.9203 -0.56749,-0.40895 -1.52718,-1.16559 -2.13265,-1.68143 l -1.10084,-0.93789 -2.04107,2.08352 c -1.122587,1.14593 -2.191175,2.21981 -2.374645,2.38639 -0.183491,0.16658 -0.288721,0.37547 -0.233892,0.46423 0.0549,0.0887 -0.038,0.16132 -0.206409,0.16132 -0.1684,0 -0.30615,0.0889 -0.30615,0.19768 0,0.10875 -0.21791,0.38713 -0.484229,0.61869 -0.266312,0.23158 -0.42889,0.51818 -0.361252,0.6369 0.0676,0.11874 0.0528,0.15245 -0.0331,0.0749 -0.188471,-0.17022 -2.85242,2.38969 -2.85242,2.74103 0,0.136 -0.142,0.2473 -0.315561,0.2473 -0.1949,0 -0.273809,0.10886 -0.20637,0.28455 0.0729,0.19019 0.0149,0.24833 -0.175358,0.17536 -0.156511,-0.06 -0.284551,-0.0251 -0.284551,0.0777 0,0.25992 0.69006,0.85964 0.850501,0.73917 0.0722,-0.0542 0.0926,-0.0452 0.0452,0.0202 -0.142287,0.19643 2.084872,2.04276 2.302132,1.90848 0.110569,-0.0684 0.144068,-0.0321 0.0745,0.0806 -0.132729,0.21477 0.209391,0.50512 2.705041,2.29567 0.838309,0.60144 1.625759,1.03547 1.749881,0.96451 0.124142,-0.0709 0.156602,-0.0532 0.0721,0.0397 -0.193544,0.21261 1.81144,1.49537 2.07892,1.33007 0.10852,-0.067 0.14398,-0.0358 0.079,0.0696 -0.12479,0.20191 3.72688,2.37382 6.03041,3.40048 5.65226,2.51918 11.93396,4.20619 18.37707,4.93528 4.47023,0.50586 11.66656,0.27285 16.69141,-0.54047 2.02514,-0.3278 7.62015,-1.67345 8.55342,-2.05719 0.31777,-0.13068 0.64403,-0.22333 0.72503,-0.20588 0.081,0.0174 0.14729,-0.0618 0.14729,-0.17625 0,-0.11439 0.0799,-0.15862 0.17738,-0.0984 0.45305,0.28 8.98323,-3.64847 8.74815,-4.02886 -0.0601,-0.0973 0.006,-0.13576 0.14636,-0.0856 0.33531,0.11972 4.19867,-2.34918 4.13085,-2.63989 -0.0287,-0.12307 0.0749,-0.19747 0.23017,-0.16535 0.63285,0.13093 4.89582,-3.41006 8.71645,-7.24017 1.65185,-1.65594 3.06767,-3.0108 3.14628,-3.0108 0.0785,0 0.49076,0.28719 0.91592,0.6382 0.88514,0.73077 3.97019,3.08227 5.05283,3.85138 0.40093,0.28482 0.73229,0.60053 0.73638,0.70157 0.004,0.10106 -0.35124,0.60914 -0.78964,1.12905 -0.43842,0.51994 -0.74866,1.02375 -0.68941,1.1196 0.0593,0.0959 -0.0461,0.16216 -0.23384,0.14735 -0.21268,-0.0168 -0.33138,0.10187 -0.3146,0.31461 0.0148,0.18784 -0.0379,0.30146 -0.11715,0.2525 -0.0791,-0.0489 -0.62547,0.41591 -1.21389,1.03306 -0.58842,0.61714 -1.70924,1.68961 -2.49069,2.38325 -1.04852,0.93066 -1.35495,1.30858 -1.16945,1.4422 0.17807,0.12824 0.149,0.14797 -0.0997,0.0678 -0.21189,-0.0685 -0.39539,0.002 -0.46284,0.17784 -0.0615,0.16019 -0.20025,0.29124 -0.30843,0.29124 -0.19051,0 -3.19398,2.3742 -3.59052,2.83826 -0.10796,0.12639 -0.35661,0.29 -0.55247,0.36352 -0.20603,0.0773 -0.29668,0.22985 -0.21511,0.36182 0.0844,0.13655 0.0555,0.17528 -0.0719,0.0965 -0.18936,-0.11704 -2.58408,1.37062 -3.08857,1.91868 -0.10841,0.11776 -0.32931,0.24315 -0.49093,0.27866 -0.16161,0.0356 -0.55894,0.25859 -0.88295,0.49581 -0.32402,0.23719 -1.07511,0.68825 -1.66914,1.00234 -1.80024,0.95186 -2.10031,1.17243 -2.01512,1.48104 0.0592,0.21435 0.0346,0.22864 -0.0905,0.0525 -0.12859,-0.18125 -0.85965,0.0707 -2.9114,1.00331 -1.50685,0.68493 -3.07108,1.353 -3.47609,1.48456 -0.40502,0.13157 -0.7364,0.32596 -0.7364,0.43195 0,0.10605 -0.0773,0.14489 -0.17203,0.0864 -0.0945,-0.0585 -0.80835,0.116 -1.58608,0.38775 -2.04087,0.71303 -7.01102,1.97288 -9.61301,2.43671 -4.98538,0.88874 -12.34039,1.31347 -17.08466,0.98661 z m -8.69488,-10.53862 c 0.14177,-0.0566 0.31114,-0.0498 0.37638,0.0155 0.0652,0.0652 -0.0507,0.11165 -0.25772,0.10312 -0.22877,-0.009 -0.2753,-0.056 -0.11866,-0.11866 z m 31.84869,-16.63445 c 0,-0.0424 0.13714,-0.12981 0.30476,-0.19411 0.17475,-0.067 0.25357,-0.0342 0.18477,0.0771 -0.11532,0.1866 -0.48953,0.27599 -0.48953,0.11695 z m 12.9604,-84.55809 c 0,-0.10796 0.0935,-0.19638 0.20796,-0.19638 0.11437,0 0.15334,0.0884 0.0866,0.19638 -0.0666,0.10795 -0.16032,0.19636 -0.20796,0.19636 -0.0476,0 -0.0866,-0.0884 -0.0866,-0.19636 z m 5.85426,-5.6325 c 0.14175,-0.0566 0.31112,-0.0497 0.37637,0.0155 0.0652,0.0652 -0.0507,0.11167 -0.25773,0.10313 -0.22875,-0.009 -0.27529,-0.056 -0.11864,-0.11865 z M 44.890555,79.493806 c 0,-0.108 0.09358,-0.196371 0.20796,-0.196371 0.114377,0 0.153342,0.08837 0.08661,0.196371 -0.06675,0.108 -0.160333,0.196368 -0.20796,0.196368 -0.04763,0 -0.0866,-0.08837 -0.0866,-0.196368 z M 182.34923,53.573027 c -0.17698,-0.114378 -0.20119,-0.191558 -0.0607,-0.193363 0.12861,-0.0015 0.28847,0.08536 0.35522,0.193363 0.15067,0.243797 0.0826,0.243797 -0.29455,0 z"
         id="path4556"
         inkscape:connector-curvature="0"
         sodipodi:nodetypes="ccccccscccsccscccccsccccccccccccccscccccccccccccsscccscccsccccccccccccccccccccccccccccsscccccccsscsccccccccscssscccscccscccccccsscscscscsccccsccsccssssscccccccccccsccccccccccccscccccsscccsccccccccccccccccccccccccscccccccccccsccccssccccccccsccccccsccsccsscccsccccccccccsccccccscccsccccsccccccccscccccccccsccccccccccccccsssccccscccccccccccsccscccccccccccssccccccscscccccccccccccccscccccccscccccccccccsscscscccccscsscccscccccssccccscccccccscccsccccsccccscccsscccsssccccccsccccsccccccccsccccccccccccccccccsccccccccccccccsccccccccccscccccscccccccccccccccccccscccccccccsccccccccccccccccscccccsccscscccscccccccccccccsccscccccccccssscccscccsccccccscccccccccscccsccccccsccccccccccccccscscccccccccscscccccccccccscccsccccscscccccscccsccccccccscccsccccccccsccscscccccccccccccccccccssccccscccccccsccccccsscsccccccscscccccccccccccccscccscscsccccccccccccccccsscccccccscccscccccsscccssccsccccccccccccccsccccccscccccccccccccsccccccccccscsccccccccccccccccscsccccccccscsccccccc" />
    </clipPath>
    <mask
       maskUnits="userSpaceOnUse"
       id="mask4590">
      <g
         id="g4596">
        <path
           inkscape:connector-curvature="0"
           id="path4592"
           d="m 107.81771,90.625017 -12.567711,21.591893 -0.04725,3.73251 4.960941,0.23624 1.5119,-5.90588 9.73289,-0.94494 2.97656,6.85082 5.05543,-0.14174 -6.28385,-25.513397 z"
           style="fill:#ffffff;fill-rule:evenodd;stroke:none;stroke-width:0.26458332px;stroke-linecap:butt;stroke-linejoin:miter;stroke-opacity:1" />
        <path
           style="fill:#000000;fill-rule:evenodd;stroke:#000000;stroke-width:0.26458332px;stroke-linecap:butt;stroke-linejoin:miter;stroke-opacity:1"
           d="m 109.28236,96.578142 -5.19717,9.354908 6.85082,-0.61421 z"
           id="path4594"
           inkscape:connector-curvature="0" />
      </g>
    </mask>
    <mask
       maskUnits="userSpaceOnUse"
       id="mask4620">
      <g
         id="g4626">
        <path
           style="opacity:1;fill:#ffffff;fill-rule:evenodd;stroke:none;stroke-width:0.26458332px;stroke-linecap:butt;stroke-linejoin:miter;stroke-opacity:1"
           d="m 167.87867,98.953295 c -13.02174,-5.301647 -18.57404,4.892265 -18.74228,9.220805 -0.5983,15.39336 11.22106,5.5375 12.36122,4.20949 0.2828,1.46055 -0.11603,3.91257 1.03567,4.10927 l 4.17609,-0.3675 z"
           id="path4622"
           inkscape:connector-curvature="0"
           sodipodi:nodetypes="cscccc" />
        <path
           sodipodi:nodetypes="csssc"
           inkscape:connector-curvature="0"
           id="path4624"
           d="m 162.6715,101.1611 c -0.44816,4.65417 -1.27276,8.85892 -3.53141,10.3186 -0.80775,0.52202 -2.29336,1.47583 -3.31941,0.87895 -1.32465,-0.77059 -1.52848,-1.79742 -1.53506,-3.25973 -0.0172,-3.82721 3.52778,-8.97912 8.38588,-7.93782 z"
           style="opacity:1;fill:#000000;fill-opacity:1;fill-rule:evenodd;stroke:none;stroke-width:0.26458332px;stroke-linecap:butt;stroke-linejoin:miter;stroke-opacity:1" />
      </g>
    </mask>
    <clipPath
       clipPathUnits="userSpaceOnUse"
       id="clipPath4648">
      <path
         style="opacity:0.2937853;fill:#000000;fill-rule:evenodd;stroke:#000000;stroke-width:0.26458332px;stroke-linecap:butt;stroke-linejoin:miter;stroke-opacity:1"
         d="m 126.15122,76.903562 -5.61266,-7.082642 -49.444865,11.759858 -0.53454,59.868372 131.897505,-0.66817 -2.13815,-68.95554 -60.67018,-4.142676 -1.60362,13.229841 z"
         id="path4650"
         inkscape:connector-curvature="0" />
    </clipPath>
    <clipPath
       clipPathUnits="userSpaceOnUse"
       id="clipPath4666">
      <path
         style="fill:#000000;fill-rule:evenodd;stroke:#000000;stroke-width:0.26458332px;stroke-linecap:butt;stroke-linejoin:miter;stroke-opacity:1"
         d="m 63.877418,123.80936 57.997482,19.77795 152.34363,-1.06908 -1.06907,89.00075 -289.185632,-1.87089 -1.603617,-105.30419 z"
         id="path4668"
         inkscape:connector-curvature="0" />
    </clipPath>
    <mask
       maskUnits="userSpaceOnUse"
       id="mask3827">
      <g
         id="g3837">
        <rect
           y="44.511925"
           x="85.04464"
           height="94.116074"
           width="94.494049"
           id="rect3829"
           style="fill:#ffffff;fill-opacity:0.8745098;stroke:#ffffff;stroke-width:2.5;stroke-miterlimit:4;stroke-dasharray:none;stroke-opacity:1" />
        <rect
           y="131.06847"
           x="41.577381"
           height="94.494049"
           width="193.90178"
           id="rect3831"
           style="fill:#ffffff;fill-opacity:0.8745098;stroke:#ffffff;stroke-width:2.5;stroke-miterlimit:4;stroke-dasharray:none;stroke-opacity:1" />
        <rect
           y="200.23811"
           x="79.375"
           height="75.595238"
           width="112.6369"
           id="rect3833"
           style="fill:#ffffff;fill-opacity:0.8745098;stroke:#ffffff;stroke-width:2.5;stroke-miterlimit:4;stroke-dasharray:none;stroke-opacity:1" />
        <rect
           y="262.2262"
           x="120.5744"
           height="25.702379"
           width="28.726189"
           id="rect3835"
           style="fill:#ffffff;fill-opacity:0.8745098;stroke:#ffffff;stroke-width:2.5;stroke-miterlimit:4;stroke-dasharray:none;stroke-opacity:1" />
      </g>
    </mask>
    <clipPath
       clipPathUnits="userSpaceOnUse"
       id="clipPath4649">
      <path
         style="display:inline;opacity:1;fill:#ffffff;stroke-width:0.51676434"
         d="m 96.055524,243.38572 c -39.483477,-39.583 -39.087822,-39.12848 -42.396922,-48.70504 -1.616382,-4.67784 -1.695907,-5.2625 -1.686879,-12.40235 0.0088,-6.99793 0.115642,-7.80999 1.616134,-12.28875 5.74952,-17.16147 20.628152,-28.01886 38.396195,-28.01886 6.940186,0 11.973908,1.20979 18.592308,4.46844 4.50202,2.21662 5.55021,3.05269 12.96391,10.3404 4.52571,4.4488 8.48441,7.92879 9.01947,7.92879 0.5324,0 4.27878,-3.27114 8.4818,-7.40586 8.22975,-8.096 12.05812,-10.7536 18.65879,-12.95266 23.22133,-7.73635 47.51037,6.21154 52.45906,30.1244 1.61618,7.80967 0.88934,16.06265 -2.05218,23.30179 -2.76675,6.80901 -4.90408,9.17608 -41.55483,46.02138 -19.51706,19.62067 -35.72352,35.66465 -36.01436,35.65329 -0.29085,-0.0114 -16.70797,-16.2406 -36.482496,-36.06497 z M 122.21477,131.1373 C 109.72991,127.83092 99.350584,118.81987 94.360816,106.95526 90.071011,96.755009 90.308697,84.466492 94.995734,74.129459 102.41605,57.764296 120.35171,47.89523 137.98662,50.473795 c 17.5955,2.572801 31.16393,15.443256 34.92842,33.131654 0.98778,4.64134 0.71704,13.603325 -0.55332,18.316031 -3.87659,14.38109 -15.90159,26.04011 -30.37776,29.45324 -4.69454,1.10685 -15.16817,0.98107 -19.76919,-0.23742 z"
         id="path4651"
         inkscape:connector-curvature="0"
         mask="url(#mask3827)"
         sodipodi:nodetypes="sccsssssssssscssssssscs" />
    </clipPath>
  </defs>
  <sodipodi:namedview
     id="base"
     pagecolor="#ffffff"
     bordercolor="#666666"
     borderopacity="1.0"
     inkscape:pageopacity="0.0"
     inkscape:pageshadow="2"
     inkscape:zoom="0.49497475"
     inkscape:cx="249.26212"
     inkscape:cy="368.23495"
     inkscape:document-units="mm"
     inkscape:current-layer="layer1"
     showgrid="false"
     units="px"
     inkscape:pagecheckerboard="true"
     guidetolerance="1"
     inkscape:lockguides="false"
     inkscape:window-width="1920"
     inkscape:window-height="1017"
     inkscape:window-x="-8"
     inkscape:window-y="-8"
     inkscape:window-maximized="1" />
  <metadata
     id="metadata5">
    <rdf:RDF>
      <cc:Work
         rdf:about="">
        <dc:format>image/svg+xml</dc:format>
        <dc:type
           rdf:resource="http://purl.org/dc/dcmitype/StillImage" />
        <dc:title></dc:title>
      </cc:Work>
    </rdf:RDF>
  </metadata>
  <g
     inkscape:label="Layer 1"
     inkscape:groupmode="layer"
     id="layer1"
     transform="translate(0,-32.416684)">
    <path
       style="fill:none;fill-rule:evenodd;stroke:#000000;stroke-width:6.31617975;stroke-linecap:butt;stroke-linejoin:miter;stroke-miterlimit:4;stroke-dasharray:none;stroke-opacity:1"
       d="M 198.08856,59.700489 C 148.79862,106.8426 99.508679,153.98472 50.218728,201.12683 44.628985,224.29912 40.065138,241.2397 34.216005,264.34735 L 94.641038,247.211 242.73756,103.06753 Z"
       id="path4547"
       inkscape:connector-curvature="0"
       sodipodi:nodetypes="cccccc" />
    <path
       sodipodi:type="star"
       style="fill:#000000;fill-opacity:0.98994978;stroke:#ffffff;stroke-width:0;stroke-miterlimit:4;stroke-dasharray:none;stroke-opacity:1"
       id="path4557"
       sodipodi:sides="3"
       sodipodi:cx="49.712132"
       sodipodi:cy="225.10452"
       sodipodi:r1="39.45647"
       sodipodi:r2="19.728235"
       sodipodi:arg1="0.25844839"
       sodipodi:arg2="1.3056459"
       inkscape:flatsided="true"
       inkscape:rounded="0"
       inkscape:randomized="0"
       d="M 87.858162,235.18884 21.905843,253.0978 39.37239,187.02693 Z"
       inkscape:transform-center-x="-1.9918651"
       inkscape:transform-center-y="-2.0288937"
       transform="matrix(0.38528346,0,0,0.40238485,25.776046,162.50463)" />
    <path
       style="fill:none;fill-rule:evenodd;stroke:#000000;stroke-width:6.31617975;stroke-linecap:butt;stroke-linejoin:miter;stroke-miterlimit:4;stroke-dasharray:none;stroke-opacity:1"
       d="M 50.218727,201.12683 94.641037,247.211"
       id="path4559"
       inkscape:connector-curvature="0" />
    <path
       style="fill:none;fill-rule:evenodd;stroke:#000000;stroke-width:6.31617975;stroke-linecap:butt;stroke-linejoin:miter;stroke-miterlimit:4;stroke-dasharray:none;stroke-opacity:1"
       d="M 63.438916,213.24082 209.864,72.784149"
       id="path4561"
       inkscape:connector-curvature="0" />
    <path
       style="fill:none;fill-rule:evenodd;stroke:#000000;stroke-width:6.31617975;stroke-linecap:butt;stroke-linejoin:miter;stroke-miterlimit:4;stroke-dasharray:none;stroke-opacity:1"
       d="M 80.150474,233.13553 227.76925,89.495707"
       id="path4563"
       inkscape:connector-curvature="0" />
  </g>
</svg>
